<svg width="25" height="24" viewBox="0 0 25 24" fill="none" xmlns="http://www.w3.org/2000/svg">
<path fill-rule="evenodd" clip-rule="evenodd" d="M12.5002 1.2002C18.4649 1.2002 23.3002 6.03552 23.3002 12.0002C23.3002 17.3908 19.3508 21.8588 14.1877 22.6689V15.1221H16.7042L17.183 12.0002H14.1877V9.97429C14.1877 9.1202 14.6061 8.28769 15.9477 8.28769H17.3096L17.3096 5.62988C17.3096 5.62988 16.0736 5.41894 14.892 5.41894H14.892L14.6482 5.42392L14.4102 5.4388C12.2172 5.62368 10.8127 7.09452 10.8127 9.62082V12.0002H8.0705L8.07051 15.1221H10.8127L10.8127 22.6689C5.6496 21.8588 1.7002 17.3908 1.7002 12.0002C1.7002 6.03552 6.53552 1.2002 12.5002 1.2002Z" fill="white"/>
</svg>
