<svg width="20" height="20" viewBox="0 0 20 20" fill="none" xmlns="http://www.w3.org/2000/svg">
<path d="M10.8538 1.66675C9.46134 1.66675 8.33268 2.79541 8.33268 4.18791C8.33268 6.25041 12.916 9.91707 12.916 9.91707C12.916 9.91707 17.4994 6.25041 17.4994 4.18791C17.4994 2.79541 16.3707 1.66675 14.9782 1.66675C13.6515 1.66675 12.916 2.62378 12.916 2.62378C12.916 2.62378 12.1805 1.66675 10.8538 1.66675ZM16.666 10.0001L12.4994 14.1667H9.16602V13.3334H12.4994V10.8334H5.83268L1.66602 15.0001L4.99935 18.3334L6.66602 16.6667H12.6426C13.0842 16.6667 13.5085 16.491 13.821 16.1785L18.3327 11.6667L16.666 10.0001Z" fill="white"/>
</svg>
