<svg width="25" height="24" viewBox="0 0 25 24" fill="none" xmlns="http://www.w3.org/2000/svg">
<path fill-rule="evenodd" clip-rule="evenodd" d="M13.6839 1.20117C14.881 1.20359 15.4836 1.21085 16.0148 1.22732L16.2396 1.23496C16.4631 1.24319 16.6871 1.25322 16.9529 1.26539C18.1025 1.31765 18.8875 1.50019 19.5745 1.76698C20.2952 2.03822 20.948 2.46342 21.4875 3.01292C22.0369 3.55237 22.462 4.20516 22.7332 4.92579C23.0002 5.61274 23.1827 6.39779 23.2352 7.54735C23.2493 7.85744 23.2606 8.11071 23.2695 8.37253L23.2765 8.60056C23.2905 9.10576 23.297 9.70481 23.2992 10.8163L23.3001 11.6729L23.3002 12.0001C23.3002 12.1129 23.3002 12.2219 23.3001 12.3274L23.2992 13.1839C23.2968 14.3809 23.2895 14.9835 23.2731 15.5147L23.2655 15.7395C23.2573 15.963 23.2473 16.1871 23.2352 16.4529C23.1827 17.6024 23.0002 18.3875 22.7332 19.0745C22.1721 20.5251 21.0253 21.6719 19.5746 22.233C18.8877 22.5 18.1026 22.6825 16.9531 22.735C16.643 22.7492 16.3897 22.7604 16.1279 22.7693L15.8999 22.7763C15.3947 22.7904 14.7956 22.7968 13.6841 22.799H11.3165C9.43551 22.7952 9.02223 22.7795 8.04752 22.735C6.898 22.6825 6.11296 22.5 5.42596 22.233C4.70534 21.9618 4.05254 21.5367 3.51309 20.9873C2.9637 20.4479 2.53859 19.7951 2.2674 19.0745C2.00041 18.3875 1.81787 17.6025 1.76539 16.4529C1.75321 16.1871 1.74318 15.9631 1.73496 15.7396L1.72732 15.5148C1.71085 14.9836 1.70359 14.381 1.70117 13.1839V10.8163C1.70341 9.70479 1.70984 9.10574 1.72393 8.60055L1.731 8.37252C1.7399 8.11071 1.75119 7.85744 1.76539 7.54735C1.81765 6.39779 2.00019 5.61274 2.26698 4.92575C2.53826 4.20509 2.96349 3.55229 3.513 3.01287C4.05245 2.46348 4.70525 2.03837 5.42588 1.76719C6.11283 1.50019 6.89787 1.31765 8.04744 1.26518C8.31323 1.25305 8.53727 1.24306 8.76074 1.23486L8.98553 1.22725C9.5167 1.21084 10.1194 1.20358 11.3164 1.20117L13.6839 1.20117ZM13.1451 3.14634L11.8552 3.14634C11.7553 3.14642 11.659 3.14652 11.5661 3.14664L11.0483 3.14768C9.4479 3.15216 9.04709 3.16752 8.13601 3.20909C7.08303 3.25711 6.51118 3.43305 6.13062 3.58095C5.66153 3.75408 5.23721 4.03014 4.88884 4.38884C4.53011 4.73721 4.25401 5.16155 4.08086 5.63066C3.93296 6.01127 3.75706 6.58307 3.709 7.63605C3.69861 7.86384 3.68986 8.05973 3.6825 8.25043L3.67433 8.47851C3.65551 9.05102 3.6484 9.6731 3.64656 11.0661V12.9344C3.6484 14.3274 3.65551 14.9495 3.67433 15.522L3.6825 15.7501C3.68986 15.9408 3.69861 16.1367 3.709 16.3644C3.75702 17.4174 3.93296 17.9893 4.08086 18.3698C4.254 18.8389 4.53006 19.2633 4.88875 19.6116C5.23712 19.9703 5.66144 20.2464 6.13054 20.4195C6.51114 20.5674 7.08294 20.7433 8.13592 20.7914C8.36368 20.8018 8.55954 20.8105 8.75022 20.8179L8.97827 20.826C9.55073 20.8449 10.1728 20.852 11.5659 20.8538H13.4343C14.8275 20.852 15.4496 20.8449 16.022 20.826L16.2501 20.8179C16.4408 20.8105 16.6366 20.8018 16.8643 20.7914C17.9173 20.7433 18.4891 20.5674 18.8697 20.4195C19.8116 20.0562 20.556 19.3117 20.9194 18.3698C21.0672 17.9892 21.2432 17.4174 21.2912 16.3644C21.3328 15.4533 21.3482 15.0525 21.3527 13.4522L21.3537 12.9344C21.3538 12.8415 21.3539 12.7452 21.354 12.6453V11.3552C21.3539 11.2553 21.3538 11.159 21.3537 11.0661L21.3527 10.5483C21.3482 8.94794 21.3328 8.54713 21.2912 7.63605C21.2432 6.58307 21.0673 6.01122 20.9194 5.63066C20.7462 5.16157 20.4702 4.73725 20.1115 4.38888C19.7631 4.03019 19.3388 3.75412 18.8697 3.58099C18.4891 3.43309 17.9173 3.25719 16.8643 3.20913C15.9532 3.16757 15.5524 3.15217 13.952 3.14768L13.4342 3.14664C13.3413 3.14652 13.245 3.14642 13.1451 3.14634ZM12.5001 6.4542C15.563 6.4542 18.046 8.93719 18.046 12.0001C18.046 15.063 15.563 17.546 12.5001 17.546C9.4372 17.546 6.9542 15.063 6.9542 12.0001C6.9542 8.93719 9.4372 6.4542 12.5001 6.4542ZM12.5002 8.40017C10.512 8.40017 8.90022 10.0119 8.90022 12.0001C8.90022 13.9883 10.5119 15.6001 12.5001 15.6001C14.4883 15.6001 16.1001 13.9883 16.1001 12.0001C16.1001 10.0119 14.4884 8.40017 12.5002 8.40017ZM18.2652 4.93912C18.9809 4.93912 19.5611 5.51935 19.5611 6.23509C19.5611 6.95084 18.9809 7.53106 18.2652 7.53106C17.5494 7.53106 16.9692 6.95084 16.9692 6.23509C16.9692 5.51935 17.5494 4.93912 18.2652 4.93912Z" fill="white"/>
</svg>
