<svg width="37" height="24" viewBox="0 0 37 24" fill="none" xmlns="http://www.w3.org/2000/svg">
<path d="M5.4668 2.44629V4.24165C6.50575 4.24165 7.51221 5.33429 7.51221 6.46187V9.56785H17.3306L13.0624 2.44629H5.4668V2.44629ZM23.1002 2.44629L18.8333 9.56753H28.65V6.46187C28.65 5.33426 29.6567 4.24197 30.6958 4.24197V2.44629H23.1002ZM7.51285 14.4898V16.9108C7.51285 18.0034 6.50634 19.5601 5.46744 19.5601V21.6793H14.4897V19.5601C13.4836 19.5601 12.444 18.0034 12.444 16.9108V14.4898H7.51285ZM14.0032 14.4898L18.082 21.2059L22.1605 14.4898H14.0034H14.0032ZM23.7189 14.4898V16.9108C23.7189 18.0034 22.6799 19.5601 21.6732 19.5601V21.6793H30.6958V19.5601C29.6568 19.5601 28.65 18.0034 28.65 16.9108V14.4898H23.7189Z" fill="#00AC3E"/>
<path d="M3.3583 0.183594V6.18616H3.89452C4.5955 6.18616 5.05097 6.28651 5.24868 6.48382C5.4676 6.70274 5.46942 7.18903 5.46942 7.80515V9.03143H0.181641V15.0262H5.46942V15.4776C5.46942 16.23 5.46718 16.9898 5.07577 17.3809C4.84325 17.6134 4.4462 17.7311 3.89452 17.7311H3.3583V23.8632H16.6031V22.9789C16.752 23.2269 17.1347 23.8632 17.1347 23.8632H19.0269C19.0269 23.8632 19.4093 23.2271 19.5584 22.9789V23.8632H32.8023V17.7311H32.266C31.7152 17.7311 31.3176 17.6134 31.0851 17.3809C30.6941 16.9899 30.6921 16.2304 30.6921 15.493V15.0262H35.9702V9.03148H30.6921V7.80457C30.6921 7.18843 30.6939 6.70258 30.9128 6.48387C31.1099 6.28635 31.5653 6.1862 32.266 6.1862H32.8022V0.183642H21.8511C21.8511 0.183642 18.8042 5.2361 18.081 6.43482C17.359 5.23706 14.3103 0.184442 14.3103 0.184442H3.35886L3.3583 0.183594ZM3.89452 0.719816H14.0068L18.0811 7.47286L22.1542 0.719816H32.2661V5.64997C30.1469 5.64997 30.1559 6.50828 30.1559 7.83737V9.56774H35.4341V14.49H30.1559V15.4628C30.1559 16.75 30.1469 18.2674 32.2661 18.2674V23.3269H20.095V21.0457L18.7236 23.3269H17.4376L16.0669 21.0457V23.3269H3.8945V18.2674C6.01403 18.2674 6.00539 16.7501 6.00539 15.4628V14.49H0.717927V9.56774H6.00539V7.83737C6.00539 6.50826 6.0141 5.64997 3.8945 5.64997V0.719816H3.89452ZM4.83596 1.77319V4.79577C6.17447 4.79577 6.92028 5.74141 6.92028 6.94779V9.56791H7.51184V6.46193C7.51184 5.33433 6.50534 4.24171 5.46643 4.24171V2.44635H13.062L17.3302 9.56791H18.8326L23.0995 2.44635H30.6951V4.24171C29.6561 4.24171 28.6493 5.33436 28.6493 6.46193V9.56791H29.2412V6.94779C29.2412 5.74136 29.9871 4.79577 31.3263 4.79577V1.77319H22.7417L18.0812 9.53301L13.4193 1.77319H4.83603H4.83596ZM17.6779 10.1333C16.9239 10.1333 16.5413 10.5829 16.5413 11.1176C16.5413 11.7469 17.0533 12.0457 17.4978 12.2876C17.6779 12.3883 17.9141 12.4958 18.0599 12.6419C18.1674 12.7489 18.2066 12.8499 18.2066 12.9964C18.2066 13.2211 18.0885 13.4523 17.6947 13.4523C17.4412 13.4523 16.7721 13.39 16.7549 12.625H16.4513V13.649C16.8677 13.812 17.194 13.9244 17.6829 13.9244C18.651 13.9244 18.8982 13.3559 18.8982 12.9345C18.8982 12.6025 18.7973 12.3604 18.5668 12.1297C18.291 11.8486 17.9198 11.7024 17.5934 11.4997C17.3795 11.3648 17.2163 11.23 17.2163 10.9819C17.2163 10.8416 17.2954 10.6052 17.7566 10.6052C18.2847 10.6052 18.4146 10.8531 18.4486 11.3818H18.7694V10.2343C18.3413 10.2119 18.3356 10.1333 17.6778 10.1333L17.6779 10.1333ZM10.6384 10.1665L9.5419 13.1931C9.47426 13.3786 9.41283 13.5079 9.18171 13.5417V13.8287H10.3239V13.5248C10.0818 13.5136 10.0594 13.4798 10.0594 13.3675C10.0594 13.1988 10.183 12.8612 10.2338 12.6865H11.2688C11.381 13.0355 11.4767 13.345 11.4767 13.4351C11.4767 13.4685 11.4769 13.5025 11.2409 13.5417V13.8287H12.5682V13.5248C12.3323 13.5248 12.2644 13.4854 12.1808 13.2603L11.0383 10.1665H10.6384V10.1665ZM24.322 10.1665L23.2252 13.1931C23.1584 13.3786 23.0964 13.5079 22.8656 13.5417V13.8287H24.0075V13.5248C23.7658 13.5136 23.7427 13.4798 23.7427 13.3675C23.7427 13.1988 23.8672 12.8612 23.9174 12.6865H24.9524C25.0652 13.0355 25.1609 13.345 25.1609 13.4351C25.1609 13.4685 25.1609 13.5025 24.9242 13.5417V13.8287H26.2515V13.5248C26.0156 13.5248 25.9481 13.4854 25.8641 13.2603L24.7216 10.1665H24.322L24.322 10.1665ZM14.1134 10.1727C13.7252 10.1727 13.0951 10.2175 12.7239 10.24V10.5432C13.0951 10.5432 13.151 10.6391 13.151 11.0948V13.0746C13.151 13.2885 13.1341 13.4966 12.7126 13.5417V13.8287H14.2203V13.5248C13.8712 13.5078 13.8207 13.334 13.8207 13.1421V12.4283H14.1637C14.237 12.4283 14.293 12.4167 14.3495 12.4167C14.6142 12.895 14.9958 13.4521 15.1649 13.6208C15.3108 13.7727 15.4853 13.896 15.7843 13.896C15.919 13.896 16.0546 13.8737 16.3011 13.8175L16.3068 13.5364C16.0769 13.5364 15.9584 13.5077 15.7559 13.3056C15.5876 13.1367 15.2666 12.6755 14.9848 12.1857C15.334 11.9275 15.491 11.5114 15.491 11.1961C15.491 10.2512 14.5631 10.1727 14.1134 10.1727L14.1134 10.1727ZM4.40229 10.2343V10.5154C4.7961 10.566 4.81283 10.6281 4.81283 10.8134C4.81283 11.0497 4.82404 12.3664 4.81283 12.8839C4.79602 13.4576 4.73428 13.4914 4.40229 13.5418V13.8288H5.71863V13.5418C5.32482 13.4914 5.28558 13.418 5.28558 13.0412V11.4494L6.42244 13.8288H6.83266L7.85039 11.5056V13.0974C7.85039 13.4628 7.84479 13.5136 7.44017 13.5248V13.8287H9.03728V13.5417C8.6943 13.4912 8.59298 13.3559 8.59298 13.0861V11.1288C8.59298 11.0103 8.57649 10.7858 8.62112 10.6785C8.64893 10.6227 8.7115 10.5605 9.03727 10.5153V10.2342H7.87291L6.74199 12.7655L5.53915 10.2342H4.40229L4.40229 10.2343ZM19.0423 10.2453V10.5432C19.4023 10.5432 19.4697 10.5492 19.4697 11.1007V12.7488C19.4697 13.4404 19.4083 13.4629 19.0423 13.5417V13.8287H20.5609V13.5417C20.2243 13.4855 20.1335 13.4404 20.1335 13.1481V12.1353H21.6299V13.1481C21.6299 13.4404 21.5399 13.4855 21.2025 13.5417V13.8287H22.7208V13.5417C22.3552 13.4629 22.2934 13.4404 22.2934 12.7488V11.1007C22.2934 10.5492 22.3616 10.5432 22.7208 10.5432V10.2453H21.2025V10.5432C21.5455 10.5492 21.6299 10.5829 21.6299 11.2693V11.6851H20.1335V11.2693C20.1335 10.5829 20.2179 10.5492 20.5609 10.5432V10.2453H19.0423ZM26.3956 10.2453V10.5489C26.7112 10.5547 26.8234 10.5721 26.8234 11.41V12.5293C26.8234 13.4684 26.7056 13.5364 26.3956 13.5248V13.8287H29.0004V12.7882H28.7246C28.6065 13.3395 28.3925 13.4067 27.9939 13.4067C27.5547 13.4067 27.5274 13.3168 27.5274 13.0637L27.5324 10.9934C27.5424 10.6765 27.5706 10.6076 27.6453 10.5826C27.7465 10.543 27.8702 10.543 27.977 10.5266V10.2452H26.3955L26.3956 10.2453ZM29.1456 10.2453V10.5492C29.4601 10.555 29.5724 10.5719 29.5724 11.41V12.5296C29.5724 13.4687 29.4541 13.5362 29.1456 13.5248V13.8287H31.7498V12.7882H31.4738C31.3559 13.3395 31.1422 13.4066 30.7427 13.4066C30.3043 13.4066 30.2756 13.3168 30.2756 13.0636L30.2816 10.9937C30.292 10.676 30.3189 10.6078 30.3935 10.5826C30.4947 10.5429 30.6188 10.543 30.7259 10.5266V10.2452H29.1456L29.1456 10.2453ZM14.0959 10.5886C14.4563 10.5886 14.7713 10.7913 14.7713 11.303C14.7713 11.8939 14.4899 12.0231 14.1075 12.0231H13.8208V10.9819C13.8208 10.9545 13.8322 10.746 13.8374 10.6111C13.9442 10.5941 14.0681 10.5886 14.0959 10.5886L14.0959 10.5886ZM10.7292 11.2014L11.095 12.2313H10.3856L10.7292 11.2014H10.7292ZM24.4125 11.2014L24.7783 12.2313H24.0692L24.4125 11.2014ZM6.91996 14.49V16.3898C6.91996 17.6906 6.17423 19.1079 4.83564 19.1079V22.3204H15.1165V19.1079C13.8422 19.1079 13.0183 17.7728 13.0183 16.3898V14.49H12.4429V16.911C12.4429 18.0036 13.4827 19.5603 14.489 19.5603V21.6795H5.46609V19.5603C6.50524 19.5603 7.5115 18.0036 7.5115 16.911V14.49H6.91994H6.91996ZM13.2414 14.49L18.0808 22.5124L22.92 14.49H22.1593L18.0808 21.2061L14.002 14.49H13.2412H13.2414ZM23.1427 14.49V16.3898C23.1427 17.7727 22.3188 19.1079 21.0448 19.1079V22.3204H31.3263V19.1079C29.987 19.1079 29.2411 17.6907 29.2411 16.3898V14.49H28.6493V16.911C28.6493 18.0036 29.6561 19.5603 30.695 19.5603V21.6795H21.6724V19.5603C22.6794 19.5603 23.7182 18.0036 23.7182 16.911V14.49H23.1428H23.1427Z" fill="white"/>
<path d="M3.89533 0.719719V5.64987C6.01486 5.64987 6.00621 6.50818 6.00621 7.83727V9.56796H0.71875V14.4899H6.00621V15.4627C6.00621 16.7499 6.01493 18.2675 3.89533 18.2675V23.3268H16.0681V21.0456L17.4385 23.3268H18.7245L20.0955 21.0456V23.3268H32.267V18.2675C30.1478 18.2675 30.1567 16.7499 30.1567 15.4627V14.4899H35.4349V9.56796H30.1567V7.83727C30.1567 6.50817 30.1478 5.64987 32.267 5.64987V0.719719H22.155L18.0824 7.47228L14.0088 0.719238H3.89648L3.89533 0.719719ZM4.83677 1.7731H13.4201L18.0819 9.53291L22.7425 1.7731H31.3271V4.79567C29.988 4.79567 29.242 5.74131 29.242 6.9477V9.56781H28.6501H18.8333H17.3309H7.5129H6.92102V6.9477C6.92102 5.74126 6.17529 4.79567 4.83671 4.79567L4.83677 1.7731ZM17.6787 10.1332C18.3364 10.1332 18.3419 10.2118 18.7699 10.2342V11.3817H18.4494C18.4156 10.853 18.2854 10.605 17.7571 10.605C17.2959 10.605 17.2172 10.8415 17.2172 10.9818C17.2172 11.2299 17.3803 11.3647 17.5943 11.4996C17.9206 11.7023 18.2918 11.8485 18.5676 12.1296C18.7981 12.3603 18.899 12.6024 18.899 12.9344C18.899 13.3558 18.6518 13.9243 17.6837 13.9243C17.1948 13.9243 16.8685 13.8119 16.4521 13.6488V12.6249H16.7557C16.7727 13.3899 17.4422 13.4522 17.6956 13.4522C18.0894 13.4522 18.2074 13.221 18.2074 12.9963C18.2074 12.8498 18.1684 12.7488 18.0608 12.6418C17.9149 12.4957 17.6787 12.3882 17.4986 12.2875C17.0542 12.0456 16.5421 11.7468 16.5421 11.1175C16.5421 10.5828 16.9247 10.1332 17.6787 10.1332ZM10.6389 10.1664H11.0391L12.1813 13.2602C12.2651 13.4855 12.3329 13.5247 12.569 13.5247V13.8286H11.2414V13.5416C11.4775 13.5021 11.4778 13.4684 11.4778 13.4349C11.4778 13.3447 11.382 13.0357 11.2696 12.6867H10.2349C10.1839 12.8612 10.0602 13.1985 10.0602 13.3674C10.0602 13.4797 10.0827 13.5135 10.325 13.5247V13.8286H9.18252V13.5416C9.41365 13.5076 9.47486 13.3787 9.54271 13.193L10.6389 10.1664ZM24.3229 10.1664H24.7227L25.8649 13.2602C25.9492 13.4855 26.0162 13.5247 26.2523 13.5247V13.8286H24.925V13.5416C25.1618 13.5021 25.1617 13.4684 25.1617 13.4349C25.1617 13.3447 25.066 13.0357 24.9532 12.6867H23.9183C23.868 12.8612 23.7438 13.1985 23.7438 13.3674C23.7438 13.4797 23.7668 13.5135 24.0083 13.5247V13.8286H22.8661V13.5416C23.0971 13.5076 23.1593 13.3787 23.2263 13.193L24.3229 10.1664ZM14.1142 10.1726C14.564 10.1726 15.4918 10.2511 15.4918 11.196C15.4918 11.5112 15.3348 11.9274 14.9856 12.1856C15.2674 12.6754 15.588 13.1367 15.7563 13.3055C15.9589 13.5077 16.0775 13.536 16.3076 13.536L16.3016 13.8174C16.0553 13.8736 15.92 13.8959 15.7851 13.8959C15.4864 13.8959 15.3118 13.7726 15.1657 13.6207C14.9968 13.452 14.6148 12.8947 14.3503 12.4166C14.2937 12.4166 14.2378 12.4282 14.1646 12.4282H13.8216V13.142C13.8216 13.3337 13.8718 13.5077 14.2208 13.5247V13.8286H12.7135V13.5416C13.1349 13.4964 13.1515 13.2887 13.1515 13.0748V11.0947C13.1515 10.6391 13.0957 10.5431 12.7247 10.5431V10.2399C13.0957 10.2175 13.726 10.1726 14.1142 10.1726ZM4.4031 10.2342H5.53964L6.7431 12.7655L7.8737 10.2342H9.03807V10.5153C8.7123 10.5605 8.64993 10.6225 8.62191 10.6785C8.57729 10.7856 8.59408 11.0105 8.59408 11.1288V13.0861C8.59408 13.3559 8.69529 13.4911 9.03807 13.5417V13.8287H7.44128V13.5248C7.84589 13.5136 7.8515 13.4628 7.8515 13.0974V11.5056L6.83314 13.8288H6.42325L5.28638 11.4491V13.0412C5.28638 13.418 5.3253 13.4911 5.71911 13.5418V13.8288H4.4031V13.5418C4.73506 13.4912 4.79683 13.4574 4.81363 12.8839C4.82464 12.3662 4.81363 11.0495 4.81363 10.8134C4.81363 10.6281 4.79691 10.566 4.4031 10.5154L4.4031 10.2342ZM19.0431 10.2452H20.5617V10.5431C20.2189 10.5489 20.1343 10.5828 20.1343 11.2692V11.685H21.6307V11.2692C21.6307 10.5828 21.5464 10.5489 21.2036 10.5431V10.2452H22.7216V10.5431C22.3624 10.5431 22.2942 10.5488 22.2942 11.1003V12.7487C22.2942 13.4405 22.356 13.4626 22.7216 13.5416V13.8287H21.2036V13.5416C21.5408 13.4854 21.6307 13.4405 21.6307 13.148V12.1353H20.1343V13.148C20.1343 13.4405 20.2251 13.4854 20.5617 13.5416V13.8287H19.0431V13.5416C19.4089 13.4626 19.4702 13.4405 19.4702 12.7487V11.1003C19.4702 10.5488 19.4029 10.5431 19.0431 10.5431V10.2452ZM26.3964 10.2452H27.9776V10.5266C27.8707 10.543 27.7474 10.5432 27.6462 10.5828C27.5713 10.6079 27.5435 10.6767 27.5333 10.9937L27.528 13.0636C27.528 13.3167 27.5558 13.4066 27.9948 13.4066C28.3936 13.4066 28.6074 13.3394 28.7255 12.7881H29.0013V13.8287H26.3965V13.5248C26.7067 13.5362 26.8243 13.4687 26.8243 12.5296V11.4099C26.8243 10.5719 26.7123 10.5546 26.3965 10.5488L26.3964 10.2452ZM29.1461 10.2452H30.7269V10.5266C30.6197 10.543 30.4958 10.5432 30.3945 10.5828C30.3197 10.6079 30.2927 10.6761 30.2823 10.9937L30.2764 13.0636C30.2764 13.3167 30.305 13.4066 30.7435 13.4066C31.1429 13.4066 31.3564 13.3394 31.4745 12.7881H31.7503V13.8287H29.146V13.5248C29.4548 13.5362 29.5731 13.4687 29.5731 12.5296V11.4099C29.5731 10.5719 29.4606 10.5546 29.146 10.5488L29.1461 10.2452ZM14.0968 10.5885C14.0687 10.5885 13.9453 10.594 13.8385 10.611C13.8333 10.7459 13.8216 10.9544 13.8216 10.9818V12.023H14.1083C14.4907 12.023 14.7721 11.8938 14.7721 11.3029C14.7721 10.7913 14.4569 10.5885 14.0968 10.5885ZM10.73 11.2013L10.3864 12.2312H11.0958L10.73 11.2013ZM24.4133 11.2013L24.0703 12.2312H24.7791L24.4133 11.2013ZM6.92076 14.4899H7.51265H12.4438H13.0191V16.3897C13.0191 17.7728 13.8431 19.1079 15.1173 19.1079V22.3202H4.83647V19.1079C6.17497 19.1079 6.92078 17.6905 6.92078 16.3897L6.92076 14.4899ZM13.2422 14.4899H14.0029H22.1601H22.9208L18.0816 22.5123L13.2422 14.4899ZM23.1435 14.4899H23.7191H28.6499H29.2418V16.3897C29.2418 17.6905 29.9879 19.1079 31.3269 19.1079V22.3202H21.0454V19.1079C22.3197 19.1079 23.1433 17.7727 23.1433 16.3897V14.4899H23.1435Z" fill="#131716"/>
</svg>
