<svg width="24" height="24" viewBox="0 0 24 24" fill="none" xmlns="http://www.w3.org/2000/svg">
<path d="M8.99927 2C5.14512 2 1.99927 5.14585 1.99927 9C1.99927 12.8541 5.14512 16 8.99927 16C10.7473 16 12.3443 15.348 13.5735 14.2812L13.9993 14.707V16L19.9993 22L21.9993 20L15.9993 14H14.7063L14.2805 13.5742C15.3473 12.345 15.9993 10.748 15.9993 9C15.9993 5.14585 12.8534 2 8.99927 2ZM8.99927 4C11.7725 4 13.9993 6.22673 13.9993 9C13.9993 11.7733 11.7725 14 8.99927 14C6.226 14 3.99927 11.7733 3.99927 9C3.99927 6.22673 6.226 4 8.99927 4Z" fill="#131716" fill-opacity="0.45"/>
</svg>
