<svg width="25" height="24" viewBox="0 0 25 24" fill="none" xmlns="http://www.w3.org/2000/svg">
<path fill-rule="evenodd" clip-rule="evenodd" d="M23.3002 5.6782C22.5055 6.031 21.6514 6.2686 20.755 6.3757C21.6703 5.8276 22.3723 4.9591 22.7035 3.9241C21.8476 4.4317 20.899 4.8007 19.8892 4.9996C19.081 4.1383 17.929 3.6001 16.6546 3.6001C14.2075 3.6001 12.223 5.5846 12.223 8.0317C12.223 8.3791 12.2626 8.7175 12.3373 9.0415C8.6545 8.857 5.3893 7.0921 3.2032 4.411C2.8225 5.0653 2.6038 5.8267 2.6038 6.6394C2.6038 8.1766 3.3859 9.5329 4.5748 10.3276C3.8485 10.3042 3.1654 10.1053 2.5678 9.7732C2.5678 9.7921 2.5678 9.8101 2.5678 9.829C2.5678 11.9764 4.0951 13.7674 6.1228 14.1742C5.7511 14.2759 5.3596 14.3299 4.9546 14.3299C4.6693 14.3299 4.3912 14.302 4.1212 14.2507C4.6855 16.0111 6.3217 17.2927 8.2612 17.3287C6.7447 18.5176 4.834 19.2259 2.7577 19.2259C2.4004 19.2259 2.0476 19.2052 1.7002 19.1638C3.6613 20.4211 5.99049 21.1546 8.49339 21.1546C16.6447 21.1546 21.1015 14.4019 21.1015 8.5456C21.1015 8.3539 21.097 8.1622 21.0889 7.9723C21.9547 7.3468 22.7062 6.5665 23.3002 5.6782Z" fill="white"/>
</svg>
